<?xml version="1.0" encoding="UTF-8" standalone="no"?>
<!-- Created with Inkscape (http://www.inkscape.org/) -->

<svg
   xmlns:dc="http://purl.org/dc/elements/1.1/"
   xmlns:cc="http://creativecommons.org/ns#"
   xmlns:rdf="http://www.w3.org/1999/02/22-rdf-syntax-ns#"
   xmlns:svg="http://www.w3.org/2000/svg"
   xmlns="http://www.w3.org/2000/svg"
   xmlns:sodipodi="http://sodipodi.sourceforge.net/DTD/sodipodi-0.dtd"
   xmlns:inkscape="http://www.inkscape.org/namespaces/inkscape"
   width="64px"
   height="64px"
   id="svg2993"
   version="1.1"
   inkscape:version="0.48.5 r10040"
   sodipodi:docname="icon.svg"
   inkscape:export-filename="/home/adeeb/PrinterView/images/custom_icon.png"
   inkscape:export-xdpi="90"
   inkscape:export-ydpi="90">
  <defs
     id="defs2995" />
  <sodipodi:namedview
     id="base"
     pagecolor="#ffffff"
     bordercolor="#666666"
     borderopacity="1.0"
     inkscape:pageopacity="0.0"
     inkscape:pageshadow="2"
     inkscape:zoom="9.3691649"
     inkscape:cx="27.410477"
     inkscape:cy="32"
     inkscape:current-layer="layer1"
     showgrid="true"
     inkscape:document-units="px"
     inkscape:grid-bbox="true"
     inkscape:window-width="1920"
     inkscape:window-height="1018"
     inkscape:window-x="0"
     inkscape:window-y="27"
     inkscape:window-maximized="1" />
  <metadata
     id="metadata2998">
    <rdf:RDF>
      <cc:Work
         rdf:about="">
        <dc:format>image/svg+xml</dc:format>
        <dc:type
           rdf:resource="http://purl.org/dc/dcmitype/StillImage" />
        <dc:title></dc:title>
      </cc:Work>
    </rdf:RDF>
  </metadata>
  <g
     id="layer1"
     inkscape:label="Layer 1"
     inkscape:groupmode="layer">
    <rect
       style="fill:#ffffff;fill-opacity:1;stroke:none"
       id="rect3978"
       width="64"
       height="64"
       x="0"
       y="0"
       ry="0" />
    <rect
       style="fill:#ffffff;fill-opacity:1;stroke:#000000;stroke-width:0.94281244;stroke-opacity:1"
       id="rect3003"
       width="36.454544"
       height="19.394081"
       x="13.772728"
       y="8.5756865" />
    <rect
       style="fill:#ffffff;fill-opacity:1;stroke:#000000;stroke-opacity:1"
       id="rect3005"
       width="51.272728"
       height="21"
       x="6.363636"
       y="20.727272"
       ry="2.909091" />
    <rect
       style="fill:#ffffff;fill-opacity:1;stroke:#000000;stroke-opacity:1"
       id="rect3026"
       width="38.18182"
       height="1"
       x="12.90909"
       y="25.727272"
       ry="0.5" />
    <a
       id="a3104"
       transform="translate(-2.818182,-4)">
      <rect
         y="39.666595"
         x="16.59091"
         height="19.394081"
         width="36.454544"
         id="rect3003-7"
         style="fill:#ffffff;fill-opacity:1;stroke:#000000;stroke-width:0.94281244;stroke-opacity:1" />
    </a>
    <rect
       style="fill:#ffffff;fill-opacity:1;stroke:#000000;stroke-width:0.65981305;stroke-opacity:1"
       id="rect3026-6"
       width="25.192863"
       height="0.65981305"
       x="19.403568"
       y="41.942822"
       ry="0.32990652" />
    <rect
       style="fill:#ffffff;fill-opacity:1;stroke:#000000;stroke-width:0.65981305;stroke-opacity:1"
       id="rect3026-6-5"
       width="25.192863"
       height="0.65981305"
       x="19.403568"
       y="46.670094"
       ry="0.32990652" />
    <path
       style="fill:#00aa00;stroke:none"
       d="m 56.65787,49.43501 c -0.02094,0.0209 -3.55995,3.543981 -3.55995,3.543981 l -0.177397,0.262394 -0.221743,0.332613 -0.121956,0.243914 -0.125647,0.240217 -0.14043,0.328918 -0.07392,0.243916 -0.05913,0.303046 -0.0887,0.369567 -0.02955,0.912834 0.01855,0.240221 c 0,0 0.01484,0.14043 0.02217,0.173688 0.0074,0.03326 0.01855,0.262394 0.01855,0.262394 l 0.07391,0.199564 0.0813,0.317831 0.203263,0.465655 0.236522,0.465656 0.232828,0.328917 0.243916,0.303048 0.347393,0.399133 0.303046,0.221742 0.317829,0.221741 0.491528,0.262392 0.299351,0.144139 0.328916,0.125647 0.406524,0.103482 0.351091,0.06283 0.09979,0.04435 0.986748,0.01484 0.225439,-0.06652 0.365872,-0.0813 c 0,0 0.347394,-0.09239 0.365872,-0.09608 0.01855,-0.0037 0.580223,-0.229131 0.580223,-0.229131 0,0 0.258695,-0.158924 0.280872,-0.166306 0.02217,-0.0074 0.240219,-0.147831 0.240219,-0.147831 l 0.314133,-0.206962 0.255002,-0.22913 0.255002,-0.266089 0.225438,-0.236526 0.125647,-0.162615 0.399137,-0.676307 0.192171,-0.376964 0.121956,-0.376958 0.103482,-0.31783 0.05173,-0.384352 -0.0222,-1.341533 -0.0887,-0.458263 -0.14043,-0.391742 -0.255005,-0.595006 -0.36587,-0.595007 -0.328917,-0.369566 -0.506306,-0.48783 L 58.781997,51.571 z"
       id="path3208"
       inkscape:connector-curvature="0" />
  </g>
</svg>
